# xmcd
#
# Track frame offsets:
#	150
#	23460
#	39785
#	55940
#	77097
#	95432
#	113480
#	127407
#	148582
#	170822
#	192060
#	213672
#	237275
#
# Disc length: 3527 seconds
#
# Revision: 0
# Processed by: cddbd v1.5.2PL0 Copyright (c) Steve Scherf et al.
# Submitted via: EZCDAudioConverter 3.1.2.1
#
DISCID=ad0dc50d
DTITLE=Various Artist - 驛動男人心2
DYEAR=1997
DGENRE=Pop
TTITLE0=周華健 - 其實不想走
TTITLE1=無印良品 - 等妳的心
TTITLE2=趙傳 - 當初應該愛妳
TTITLE3=伍佰 - 痛哭的人
TTITLE4=成龍 - 感受
TTITLE5=張洪量 - 美麗的花蝴蝶
TTITLE6=吳念真 - Crying in a Storm
TTITLE7=杜德偉 - 放一顆心
TTITLE8=陳昇 - 最後一次溫柔
TTITLE9=剛澤斌 - 妳在他鄉
TTITLE10=郭子 - 為愛偷生
TTITLE11=馬兆駿 - 我要的不多
TTITLE12=林強 - 向前走
EXTD=
EXTT0=
EXTT1=
EXTT2=
EXTT3=
EXTT4=
EXTT5=
EXTT6=
EXTT7=
EXTT8=
EXTT9=
EXTT10=
EXTT11=
EXTT12=
PLAYORDER=
